<?xml version="1.0" encoding="utf-8"?>
<!-- Generator: Adobe Illustrator 27.0.0, SVG Export Plug-In . SVG Version: 6.00 Build 0)  -->
<svg version="1.1" id="圖層_1" xmlns="http://www.w3.org/2000/svg" xmlns:xlink="http://www.w3.org/1999/xlink" x="0px" y="0px"
	 viewBox="0 0 24 24" style="enable-background:new 0 0 24 24;" xml:space="preserve">
<style type="text/css">
	.st0{fill-rule:evenodd;clip-rule:evenodd;}
</style>
<path class="st0" d="M20.7,10l0.8,0.6c0.3,0.3,0.8,0.2,1.1-0.1c0.3-0.3,0.2-0.8-0.1-1.1L14.3,3C13,1.9,11,1.9,9.7,3L1.5,9.5
	c-0.3,0.3-0.4,0.7-0.1,1.1c0.3,0.3,0.7,0.4,1.1,0.1L3.3,10v10.3H2c-0.4,0-0.8,0.3-0.8,0.8s0.3,0.8,0.8,0.8h20c0.4,0,0.8-0.3,0.8-0.8
	s-0.3-0.8-0.8-0.8h-1.2V10z M9.3,8.6c0-1.5,1.2-2.8,2.7-2.8s2.8,1.2,2.8,2.8c0,1.5-1.2,2.8-2.8,2.8S9.3,10.1,9.3,8.6z M12,12.3
	c0.7,0,1.2,0,1.7,0.1c0.5,0.1,1,0.2,1.3,0.6c0.4,0.4,0.5,0.9,0.6,1.3c0.1,0.4,0.1,1,0.1,1.6c0,0,0,0.1,0,0.1v4.3h-1.5v-4.2
	c0-0.7,0-1.2,0-1.5c0-0.3-0.1-0.4-0.2-0.5c-0.1-0.1-0.2-0.1-0.5-0.2c-0.3,0-0.8,0-1.5,0s-1.2,0-1.5,0C10.1,13.9,10,14,10,14
	s-0.1,0.2-0.2,0.5c0,0.3,0,0.8,0,1.5v4.2H8.3V16c0-0.7,0-1.2,0.1-1.7c0.1-0.5,0.2-1,0.6-1.3c0.4-0.4,0.9-0.5,1.3-0.6
	C10.7,12.3,11.3,12.3,12,12.3L12,12.3z"/>
<path class="st0" d="M10.8,8.6c0-0.7,0.6-1.2,1.2-1.2c0.7,0,1.2,0.6,1.2,1.2c0,0.7-0.6,1.2-1.2,1.2C11.3,9.8,10.8,9.3,10.8,8.6z"/>
</svg>
